<svg width="192" height="41" viewBox="0 0 192 41" fill="none" xmlns="http://www.w3.org/2000/svg">
<path d="M56.7888 7.63867C58.016 7.57063 59.7796 7.62165 61.0393 7.61649C62.6797 13.7661 64.6023 19.7728 66.3073 25.8885C66.7306 24.4276 67.0523 22.7967 67.4443 21.3148C68.6254 16.8483 69.5726 12.0543 70.8193 7.6293C72.309 7.68224 73.8674 7.62796 75.3901 7.67651C75.0642 8.56846 74.652 10.335 74.4064 11.294L68.9738 32.2321C67.33 32.2566 65.6401 32.2381 63.9925 32.24C62.1891 26.8269 60.524 20.9672 58.8428 15.4901C58.2627 17.8288 57.4606 20.2155 56.78 22.5301C55.8563 25.7862 54.9133 29.0368 53.951 32.2818C52.5142 32.1866 50.5262 32.2467 49.0477 32.2501C47.5707 27.1747 46.2254 21.5747 44.8591 16.4239L43.3915 10.8992C43.1383 9.94796 42.7098 8.53616 42.592 7.60407C43.4878 7.71071 46.1526 7.64421 47.1825 7.64516C48.2327 11.6455 49.239 15.6571 50.2009 19.6794C50.6193 21.4224 51.1458 24.1212 51.6836 25.7492C52.1945 23.1524 53.0681 20.4127 53.8226 17.8548C54.8313 14.4551 55.8202 11.0498 56.7888 7.63867Z" fill="white"/>
<path d="M81.8763 14.1248C84.9432 13.6921 87.129 14.5078 88.8187 17.1577C88.804 16.2746 88.8173 15.3641 88.8193 14.4786C90.1252 14.4851 91.4311 14.4841 92.737 14.4752L92.7433 32.2795C91.5081 32.2365 90.0785 32.2697 88.8288 32.2686C88.8013 31.2025 88.8072 30.1357 88.8468 29.07L88.3093 30.1498C88.2575 30.228 88.2048 30.3054 88.1511 30.3822C87.2102 31.7191 86.0085 32.3917 84.4118 32.6388C72.7856 34.4376 70.5222 15.8203 81.8763 14.1248ZM84.5911 28.6465C90.1508 27.7551 90.107 18.9141 84.6444 18.0178C84.1638 17.9388 83.5411 17.9941 83.049 18.0244C75.9842 19.6841 78.2263 29.5618 84.5911 28.6465Z" fill="white"/>
<path d="M32.7073 14.1825C37.8081 13.4291 42.5488 16.9667 43.2787 22.0708C44.0088 27.1748 40.4494 31.8995 35.3421 32.6059C30.2677 33.3079 25.5803 29.7767 24.8552 24.7056C24.1299 19.6344 27.6396 14.9309 32.7073 14.1825ZM34.6588 28.802C40.9664 27.6347 40.1893 17.357 33.3866 17.8373C26.744 19.9129 28.4541 29.3727 34.6588 28.802Z" fill="white"/>
<path d="M11.9929 7.44345C17.3955 7.36337 21.804 9.83302 23.2538 15.2207C21.7652 15.2558 20.3026 15.2746 18.8126 15.3344C16.6233 10.534 9.8986 10.0348 6.75009 14.1097C4.51456 17.0707 4.43487 21.6201 6.20903 24.8118C8.65804 29.2171 15.0862 29.8656 18.1127 25.7246L18.6565 24.9064C20.2632 24.9907 21.8149 24.881 23.4337 25.0274C22.9073 26.6341 22.5184 27.4376 21.4539 28.7655C16.067 35.4868 3.73461 33.4128 0.900492 25.2246C-2.06091 16.669 2.44722 7.98069 11.9929 7.44345Z" fill="white"/>
<path d="M112.08 7.62993C113.465 7.63012 114.849 7.63758 116.234 7.65268C116.215 11.0145 116.266 14.3753 116.219 17.7369C116.509 16.9711 116.947 15.9551 117.541 15.4488C121.006 12.4972 127.012 14.3134 127.784 19.0138C128.107 20.9844 128.02 22.5117 128.032 24.3827L128.074 32.2708C126.782 32.2089 125.199 32.2492 123.885 32.2492C123.713 30.4034 123.846 27.6929 123.857 25.7565L123.859 25.6584C123.887 23.5148 124.195 20.1584 122.592 18.6539C120.503 16.693 116.877 18.1721 116.392 20.9215C116.105 22.5522 116.2 24.0742 116.205 25.6594L116.237 32.3239C115.002 32.2031 113.323 32.2502 112.046 32.2534C111.952 30.5672 112.013 28.5245 112.013 26.8073L112.022 16.513L112.007 10.5812C112.006 9.99064 111.964 8.11289 112.08 7.62993Z" fill="white"/>
<path d="M100.627 14.1218C101.806 13.9584 103.822 14.0537 104.952 14.3865C107.117 15.0244 107.956 16.1163 108.995 17.961C108.103 18.4911 106.602 19.1012 105.624 19.4892C104.745 18.2874 103.654 17.449 102.088 17.4604C101.087 17.4677 99.5364 17.9721 99.6477 19.2319C99.8017 20.9738 101.839 21.1836 103.19 21.4797C106.726 22.1507 109.859 23.0688 109.665 27.3996C109.492 31.2709 106.503 32.668 103.081 32.7336C99.9147 32.7173 96.6746 31.8003 95.0625 28.7489C94.9564 28.5482 94.9457 28.3504 95.0338 28.1486C95.6271 27.658 97.2778 26.8851 98.0755 26.7404C98.7979 26.9117 99.1299 27.675 99.7665 28.2575C101.211 29.5786 106.04 29.6887 105.528 26.8412C105.255 25.3246 101.452 24.9651 100.012 24.5626C98.0948 24.0269 95.9275 22.816 95.5671 20.5157C95.0442 16.9842 97.247 14.6619 100.627 14.1218Z" fill="white"/>
<path d="M190.91 0.338928L191.812 0.319672C190.273 3.62471 188.808 7.6004 187.383 11.033L175.917 38.8815C174.749 39.0163 173.303 39.0764 172.117 39.1466C170.742 35.7978 169.438 32.0417 168.146 28.6261L166.177 23.4115C165.8 22.4077 165.335 21.2505 165.029 20.2412C164.647 21.2945 164.152 23.4471 163.418 24.0972C160.535 26.6511 154.731 30.7965 150.813 30.6356C150.457 29.8006 150.158 28.9434 149.863 28.0848C148.794 24.9806 147.66 21.8883 146.611 18.7781C145.933 16.7674 145.935 15.2579 146.903 13.3825C147.21 12.8333 147.594 12.3311 148.044 11.8911C149.22 10.732 150.449 10.1841 152.093 10.1997C152.912 13.3617 153.77 16.5134 154.667 19.6541C155.094 21.099 155.522 22.7299 156.133 24.0883C158.208 18.8911 160.218 13.6684 162.164 8.42152L163.816 3.93628C164.107 3.14276 164.534 1.87757 164.909 1.16365C165.346 2.62205 166.097 4.45546 166.64 5.89769C167.702 8.74376 168.789 11.5806 169.901 14.4077C171.282 17.9583 172.665 22.0806 174.23 25.5054C175 23.6072 175.758 21.2574 176.459 19.3019C177.874 15.4071 179.27 11.5052 180.647 7.59642L182.176 3.27063C182.446 2.50253 182.786 1.39935 183.115 0.701347C183.458 0.612507 185.028 0.578231 185.486 0.558846L190.91 0.338928Z" fill="white"/>
<path d="M149.73 0.0210507C152.064 -0.121965 155.08 0.488483 157.325 1.10266C157.674 1.1983 158.463 4.13501 158.608 4.60707L160.266 9.84192L159.607 11.6077C156.941 9.76232 154.571 8.55991 151.272 8.22766C148.157 7.92917 145.388 8.33036 142.925 10.42C134.809 17.3051 138.049 31.2313 149.124 32.3599C154.179 32.875 158.689 29.9488 162.38 26.889C162.193 27.4487 161.966 28.0419 161.765 28.6008C161.485 29.1662 161.039 30.4407 160.789 31.0704C159.74 33.7148 158.856 36.5256 157.772 39.151C150.558 41.3315 142.39 40.2959 136.72 35.0477C132.786 31.437 130.475 26.391 130.312 21.0533C130.004 12.283 134.441 4.74957 142.644 1.30742C144.966 0.333014 147.249 0.101417 149.73 0.0210507Z" fill="#6E172D"/>
</svg>
